<?xml version="1.0" encoding="utf-8"?>
<!-- Svg Vector Icons : http://www.onlinewebfonts.com/icon -->
<!DOCTYPE svg PUBLIC "-//W3C//DTD SVG 1.1//EN" "http://www.w3.org/Graphics/SVG/1.1/DTD/svg11.dtd">
<svg version="1.1" xmlns="http://www.w3.org/2000/svg" xmlns:xlink="http://www.w3.org/1999/xlink" x="0px" y="0px" viewBox="0 0 1000 1000" enable-background="new 0 0 1000 1000" xml:space="preserve">
<metadata> Svg Vector Icons : http://www.onlinewebfonts.com/icon </metadata>
<g><path d="M836.7,674.5c30.9-29.3,51.2-52,60.6-68c11.6-19.4,17.4-42.4,17.4-68.9c0-50.9-17.7-91.3-53.1-121.2c-32.6-27.7-73.6-41.5-122.8-41.5c-21.6,0-43.1,3.3-64.7,9.9c-21.6,6.6-40.1,16-55.6,28.2c-27.7,21.1-46.2,45.9-55.6,74.7c-6.6,19.9-10,47-10,81.3h73.1c0-32.1,5.2-58.3,15.8-78.9c17.7-34.9,49.2-52.3,94.6-52.3c35.4,0,62.2,11.6,80.5,34.9c13.3,17.1,20,37.1,20,59.8c0,26.5-7.2,49-21.6,67.2c-5.6,6.6-20.5,22.7-44.8,48.1c-32.1,33.2-52.6,58.7-61.5,76.4c-11.6,23.8-17.4,57.8-17.4,102.1h73c0-45.4,8.8-80,26.5-103.7C797.7,713.3,812.9,697.1,836.7,674.5z"/><path d="M898.9,680c-16.1,0-29.2,13.1-29.2,29.2v222.5H845c-16.1,0-29.2,13.1-29.2,29.1c0,16.1,13.1,29.2,29.2,29.2h53.8c16.1,0,29.2-13.1,29.2-29.2V709.2C928,693.1,915,680,898.9,680z"/><path d="M898.9,10H101.1C85,10,72,23.1,72,39.2v920.6C72,975.9,85,989,101.1,989h527.7c16.1,0,29.2-13.1,29.2-29.2c0-16.1-13.1-29.1-29.2-29.1H130.3V68.4h739.3v287.6c0,16.1,13.1,29.2,29.2,29.2c16.1,0,29.2-13.1,29.2-29.2V39.2C928,23.1,915,10,898.9,10z"/><path d="M754.7,252c0-16.1-13.1-29.2-29.2-29.2H252.4c-16.1,0-29.2,13.1-29.2,29.2c0,16.1,13.1,29.2,29.2,29.2h473.1C741.6,281.2,754.7,268.1,754.7,252z"/><path d="M486.4,481.1c0-16.1-13.1-29.2-29.2-29.2H252.4c-16.1,0-29.2,13.1-29.2,29.2c0,16.1,13.1,29.2,29.2,29.2h204.8C473.3,510.3,486.4,497.2,486.4,481.1z"/><path d="M252.4,681c-16.1,0-29.2,13.1-29.2,29.2c0,16.1,13.1,29.2,29.2,29.2h173c16.1,0,29.2-13.1,29.2-29.2c0-16.1-13.1-29.2-29.2-29.2H252.4z"/><path d="M728.8,874.6c-29.6,0-53.6,24-53.6,53.6c0,29.6,24,53.5,53.6,53.5c29.6,0,53.6-24,53.6-53.5C782.4,898.6,758.4,874.6,728.8,874.6z"/></g>
</svg>