<?xml version="1.0" ?><svg enable-background="new 0 0 40 40" id="Слой_1" version="1.1" viewBox="0 0 40 40" xml:space="preserve" xmlns="http://www.w3.org/2000/svg" xmlns:xlink="http://www.w3.org/1999/xlink"><g><path d="M20,0C9,0,0,9,0,20c0,11,9,20,20,20c11,0,20-9,20-20C40,9,31,0,20,0z M20,38c-9.9,0-18-8.1-18-18c0-9.9,8.1-18,18-18   s18,8.1,18,18C38,29.9,29.9,38,20,38z"/></g><g><path d="M31.6,21h-6.3c-0.6,0-1-0.4-1-1s0.4-1,1-1h6.3c0.6,0,1,0.4,1,1S32.1,21,31.6,21z"/></g><g><path d="M24,17.1c-0.3,0-0.5-0.1-0.7-0.3c-0.4-0.4-0.4-1,0-1.4l4.6-4.6c0.4-0.4,1-0.4,1.4,0s0.4,1,0,1.4l-4.6,4.6   C24.5,17,24.3,17.1,24,17.1z"/></g><g><path d="M28.6,29.6c-0.3,0-0.5-0.1-0.7-0.3l-4.6-4.6c-0.4-0.4-0.4-1,0-1.4s1-0.4,1.4,0l4.6,4.6c0.4,0.4,0.4,1,0,1.4   C29.1,29.5,28.8,29.6,28.6,29.6z"/></g><g><path d="M17.8,15v-2.3l-4,4.5c-0.2,0.2-0.5,0.3-0.7,0.3H9.7c-0.6,0-1.1,0.5-1.1,1.1v3c0,0.6,0.5,1.1,1.1,1.1H12v-2.4   c0-0.6,0.4-1,1-1c0.5,0,1,0.4,1,1v3l3.8,4.2v-8.5c0-0.5,0.5-1,1-1s1,0.5,1,1v9.1c0,0.9-0.4,1.6-1.1,1.9c-0.2,0.1-0.3,0.1-0.5,0.1   c-0.4,0-0.8-0.2-1.1-0.5l-4.5-5H9.7c-1.7,0-3.1-1.4-3.1-3.1v-3c0-1.7,1.4-3.1,3.1-3.1h2.9l4.5-5c0.4-0.5,1-0.6,1.6-0.4   c0.7,0.3,1.1,1,1.1,1.9v3c0,0.6-0.5,1-1,1S17.8,15.6,17.8,15z"/></g></svg>